<svg xmlns="http://www.w3.org/2000/svg" width="500" height="500" fill="none" viewBox="0.005 0.55 500.087 483.966"><path fill="#5044e9" d="M425.2 203.77h.206L396.971 80.61c-2.267-9.7-8.689-17.726-17.721-21.996L264.34 3.761c-4.293-2.015-9.135-3.21-13.841-3.21s-9.547 1.16-14.047 3.21l-115.39 54.853c-9.135 4.27-15.455 12.262-17.721 21.996l-28.54 123.16c-2.267 9.7 0 19.741 6.32 27.631l79.745 98.639c6.114 7.685 15.455 12.057 25.208 12.057h127.83c9.754 0 19.095-4.27 25.208-12.057l79.744-98.639c6.32-7.685 8.69-17.931 6.32-27.631zM224.63 95.36h9.342c2.747 0 5.014-2.22 5.014-4.987V46.416c0-2.732 2.232-4.986 5.014-4.986h11.986c2.747 0 5.014 2.22 5.014 4.986v43.991c0 2.733 2.232 4.987 5.014 4.987h9.376c3.847 0 6.25 4.133 4.327 7.446l-25.346 43.684c-1.923 3.313-6.731 3.313-8.654 0L220.37 102.84c-1.923-3.313.48-7.446 4.327-7.446zm-50.245 91.603c-2.747 0-5.014 2.22-5.014 4.987v9.324c0 3.825-4.156 6.216-7.487 4.303l-43.926-25.206c-3.331-1.912-3.331-6.694 0-8.607l43.926-25.206c3.331-1.912 7.487.479 7.487 4.304v9.29c0 2.732 2.232 4.987 5.014 4.987h44.235c2.748 0 5.014 2.22 5.014 4.986v11.92c0 2.733-2.232 4.987-5.014 4.987h-44.235zm100.97 69.778h-9.341c-2.748 0-5.015 2.22-5.015 4.987v43.99c0 2.733-2.232 4.987-5.014 4.987H244c-2.747 0-5.014-2.22-5.014-4.986v-43.991c0-2.733-2.232-4.987-5.014-4.987h-9.376c-3.847 0-6.25-4.133-4.327-7.446l25.346-43.684c1.923-3.313 6.731-3.313 8.654 0l25.346 43.684c1.924 3.313-.48 7.446-4.327 7.446zm106.67-76.37-43.926 25.206c-3.331 1.913-7.487-.478-7.487-4.303v-9.29c0-2.733-2.232-4.987-5.014-4.987h-44.235c-2.748 0-5.014-2.22-5.014-4.987v-11.92c0-2.732 2.232-4.986 5.014-4.986h44.235c2.747 0 5.014-2.22 5.014-4.987v-9.324c0-3.826 4.156-6.216 7.487-4.304l43.926 25.206c3.331 1.913 3.331 6.695 0 8.607z"/><g fill="#5044e9" clip-path="url(#a)" transform="translate(-181.28 351.73)scale(1.3809)"><path d="M144.3 50.421c1.309-1.38 2.618-2.831 4-4.356s2.691-2.977 4.001-4.429c1.309-1.452 2.473-2.904 3.636-4.21a73 73 0 0 0 2.91-3.486h15.492c-3.055 3.558-6.11 6.898-9.019 10.092s-6.182 6.534-9.674 9.947c1.746 1.597 3.564 3.412 5.383 5.663 1.818 2.25 3.636 4.428 5.382 6.752a100 100 0 0 1 4.801 6.97c1.454 2.323 2.691 4.428 3.636 6.388h-14.983c-.946-1.524-1.964-3.194-3.2-5.01a124 124 0 0 0-3.783-5.517c-1.309-1.815-2.763-3.63-4.218-5.3s-2.982-3.122-4.364-4.283v20.11h-13.02V14.267l13.02-2.106z"/><path d="M215.36 74.016c0 7.478-1.891 13.068-5.746 16.698s-9.673 5.445-17.674 5.445c-2.764 0-5.601-.218-8.365-.726-2.763-.508-5.382-1.162-7.782-1.96l2.255-10.89c2.036.798 4.145 1.452 6.4 1.887s4.801.726 7.637.726c3.71 0 6.328-.798 7.928-2.468 1.528-1.597 2.328-3.703 2.328-6.244v-1.67c-1.382.654-2.837 1.09-4.291 1.452-1.455.29-3.128.509-4.874.509-6.328 0-11.201-1.888-14.547-5.59-3.345-3.776-5.091-9.003-5.091-15.755 0-3.34.509-6.461 1.6-9.22s2.546-5.155 4.583-7.115c2.036-1.96 4.436-3.485 7.346-4.574 2.909-1.089 6.182-1.597 9.892-1.597 1.6 0 3.2 0 4.873.218 1.673.145 3.273.363 4.946.58 1.6.218 3.2.509 4.655.799 1.454.29 2.836.653 4 1.016v38.48zm-28.584-18.659c0 7.26 2.909 10.89 8.801 10.89 1.309 0 2.618-.145 3.782-.508s2.182-.726 2.982-1.234V43.74c-.655-.146-1.382-.218-2.255-.29s-1.891-.146-3.055-.146c-3.418 0-5.964 1.162-7.71 3.412-1.672 2.251-2.545 5.155-2.545 8.64m53.384-22.65q5.783 0 9.601 1.307c2.546.871 4.583 2.105 6.183 3.775 1.527 1.597 2.618 3.63 3.273 5.954.654 2.323.945 4.936.945 7.768v27.008c-1.891.435-4.437.871-7.782 1.452-3.346.58-7.347.798-12.074.798-2.982 0-5.674-.29-8.074-.798s-4.509-1.38-6.255-2.541-3.055-2.76-4-4.647c-.946-1.887-1.382-4.283-1.382-7.042s.509-4.937 1.6-6.825 2.546-3.34 4.291-4.428c1.819-1.09 3.855-1.888 6.183-2.396s4.727-.726 7.273-.726c1.673 0 3.2 0 4.51.218 1.309.145 2.4.363 3.2.58V50.93c0-2.178-.655-3.993-2.037-5.3-1.309-1.307-3.636-2.033-6.982-2.033-2.182 0-4.364.146-6.546.509s-4.001.798-5.601 1.38l-1.673-10.456c.728-.218 1.673-.508 2.837-.726 1.164-.29 2.4-.508 3.709-.726s2.764-.363 4.219-.508a46 46 0 0 1 4.51-.218zm1.019 37.971c1.309 0 2.473 0 3.636-.073 1.164-.072 2.11-.145 2.764-.29V60.44c-.509-.145-1.309-.218-2.327-.363s-2.037-.145-2.91-.145c-1.236 0-2.4 0-3.418.218a10 10 0 0 0-2.837.798c-.8.436-1.455.944-1.891 1.67s-.727 1.597-.727 2.614c0 2.033.654 3.412 2.036 4.21s3.273 1.162 5.601 1.162zm24.441-48.135 13.02-2.105V33.94h15.638v10.817H278.64v16.118c0 2.76.509 4.937 1.454 6.535.946 1.597 2.91 2.468 5.819 2.468 1.382 0 2.837-.145 4.291-.363 1.455-.29 2.837-.653 4.074-1.089l1.818 10.092c-1.6.653-3.346 1.162-5.237 1.67-1.891.435-4.291.726-7.055.726-3.564 0-6.474-.508-8.801-1.452s-4.219-2.323-5.601-3.993a14.6 14.6 0 0 1-2.909-6.244c-.582-2.468-.8-5.155-.8-8.131v-38.55zm30.48 34.631c0-4.066.654-7.623 1.891-10.672 1.236-3.05 2.909-5.59 4.946-7.623s4.364-3.558 7.055-4.647c2.618-1.016 5.382-1.597 8.146-1.597 6.546 0 11.638 1.96 15.42 5.953s5.673 9.802 5.673 17.57c0 .726 0 1.598-.072 2.469 0 .871-.146 1.67-.146 2.396h-29.53c.291 2.686 1.527 4.791 3.782 6.389 2.182 1.597 5.164 2.323 8.874 2.323 2.4 0 4.727-.218 7.055-.653s4.146-.944 5.6-1.598l1.746 10.527c-.727.363-1.6.726-2.764 1.017s-2.473.653-3.855.944q-2.182.435-4.582.653c-2.4.218-3.273.29-4.873.29-4.146 0-7.71-.58-10.765-1.815s-5.6-2.904-7.564-5.01c-2.037-2.105-3.492-4.646-4.437-7.55s-1.455-6.026-1.455-9.438zm30.548-4.937c0-1.089-.218-2.178-.582-3.194a7.75 7.75 0 0 0-1.454-2.76c-.655-.798-1.528-1.451-2.546-2.032-1.018-.508-2.255-.799-3.782-.799s-2.691.218-3.782.726q-1.529.763-2.619 1.96c-1.09 1.198-1.236 1.743-1.6 2.832-.364 1.09-.655 2.178-.8 3.267zm45.742 1.234c-1.164 4.429-2.401 8.785-3.71 13.141s-2.691 8.712-4.146 13.141h-10.11a252 252 0 0 1-3.418-8.712c-1.237-3.34-2.473-7.042-3.783-11.035-1.309-3.993-2.691-8.204-4-12.633s-2.691-8.93-4-13.431h13.674c.436 2.105.945 4.356 1.527 6.824q.873 3.703 1.746 7.624a178 178 0 0 0 1.964 7.913c.654 2.614 1.382 5.155 2.036 7.623.727-2.54 1.528-5.154 2.255-7.84s1.455-5.3 2.109-7.914c.655-2.614 1.309-5.082 1.891-7.478s1.164-4.647 1.6-6.752h9.456c.436 2.105 1.018 4.356 1.6 6.752s1.164 4.937 1.818 7.478c.655 2.613 1.31 5.227 2.037 7.913s1.455 5.3 2.182 7.841c.727-2.468 1.382-5.01 2.109-7.623a156 156 0 0 0 1.964-7.913c.582-2.614 1.237-5.155 1.746-7.624a257 257 0 0 0 1.527-6.824h13.529c-1.309 4.501-2.619 9.002-4 13.43-1.382 4.43-2.692 8.64-4.001 12.634s-2.618 7.623-3.855 11.035q-1.854 5.01-3.491 8.712h-10.11c-1.455-4.429-2.91-8.785-4.292-13.141s-2.691-8.712-3.854-13.141m53.1-20.764q5.783 0 9.601 1.307c2.546.871 4.583 2.105 6.183 3.775 1.527 1.597 2.618 3.63 3.273 5.954.654 2.323.945 4.936.945 7.768v27.008c-1.891.435-4.436.871-7.782 1.452-3.346.58-7.346.798-12.074.798-2.982 0-5.673-.29-8.074-.798s-4.509-1.38-6.255-2.541-3.055-2.76-4-4.647c-.946-1.887-1.382-4.283-1.382-7.042s.509-4.937 1.6-6.825 2.546-3.34 4.291-4.428c1.819-1.09 3.855-1.888 6.183-2.396s4.727-.726 7.273-.726c1.673 0 3.201 0 4.51.218 1.309.145 2.4.363 3.2.58V50.93c0-2.178-.655-3.993-2.037-5.3-1.309-1.307-3.636-2.033-6.982-2.033-2.182 0-4.364.146-6.546.509s-4.001.798-5.601 1.38l-1.673-10.456c.728-.218 1.673-.508 2.837-.726 1.164-.29 2.4-.508 3.71-.726 1.309-.218 2.763-.363 4.218-.508a46 46 0 0 1 4.51-.218zm1.091 37.971c1.31 0 2.473 0 3.637-.073s2.109-.145 2.764-.29V60.44c-.509-.145-1.309-.218-2.327-.363s-2.037-.145-2.91-.145c-1.236 0-2.4 0-3.418.218a10 10 0 0 0-2.837.798c-.8.436-1.455.944-1.891 1.67a5 5 0 0 0-.727 2.614c0 2.033.654 3.412 2.036 4.21s3.273 1.162 5.601 1.162zM493.28 33.94a398 398 0 0 1-8.219 24.83c-2.837 7.696-5.964 15.246-9.383 22.506-1.236 2.614-2.473 4.864-3.636 6.68-1.237 1.814-2.546 3.34-4.001 4.5-1.454 1.162-3.127 2.033-4.946 2.614s-4 .799-6.4.799c-2.037 0-3.928-.218-5.674-.58-1.745-.364-3.127-.8-4.218-1.235l2.254-10.382c1.31.435 2.546.798 3.564.944s2.183.29 3.346.29c2.328 0 4.146-.653 5.383-1.888 1.236-1.234 2.327-2.976 3.2-5.154-2.982-5.808-5.964-12.342-8.874-19.53-2.909-7.188-5.746-15.32-8.364-24.322h13.819c.582 2.25 1.237 4.719 2.037 7.333s1.6 5.3 2.473 7.986a254 254 0 0 0 2.691 7.913 120 120 0 0 0 2.619 6.97 4784 4784 0 0 0 2.4-6.97c.8-2.54 1.6-5.154 2.4-7.913a746 746 0 0 0 2.255-7.986 416 416 0 0 0 1.964-7.333h13.456z"/></g><defs><clipPath id="a"><path fill="#5044e9" d="M131.28 12.16h362v84h-362z"/></clipPath></defs></svg>