<svg xmlns="http://www.w3.org/2000/svg" width="7167" height="6000" viewBox="-200 -4800 7567 6000"><defs><clipPath id="band-top"><path d="M-200-4800H7367V-3595H-200z"/></clipPath><clipPath id="band-middle"><path d="M-200-3602H7367V2H-200z"/></clipPath><clipPath id="band-bottom"><path d="M-200-2H7367V1203H-200z"/></clipPath><style>@keyframes glitch-bottom-0{0%,55.83%,56.69%,89.43%,89.78%,to{transform:translateX(0)}55.84%,56.68%,89.44%,89.77%{transform:translateX(200px)}}@keyframes glitch-top-0{0%,88.93%,89.95%,to{transform:translateX(0)}88.94%,89.94%{transform:translateX(-200px)}}@keyframes glitch-bottom-1{0%,70.44%,71.29%,97.84%,98.19%,to{transform:translateX(0)}70.45%,71.28%,97.85%,98.18%{transform:translateX(200px)}}@keyframes glitch-top-1{0%,97.34%,98.36%,to{transform:translateX(0)}97.35%,98.35%{transform:translateX(-200px)}}</style></defs><g clip-path="url(#band-top)" style="animation:glitch-top-0 15s infinite"><path fill="#000" d="M 2880 -2880 L 2880 -1920 L 960 -1920 L 960 -960 L 3840 -960 L 3840 0 L 960 0 L 0 0 L 0 -3840 L 0 -4800 L 3840 -4800 L 3840 -3840 L 960 -3840 L 960 -2880 L 2880 -2880 Z"/><path fill="#000" d="M 5010.0 -272 L 5010.0 48 L 3858.0 48 L 3858.0 -272 L 5010.0 -272 Z M 5010.0 48 L 5010.0 336 L 4722.0 336 L 4722.0 48 L 5010.0 48 Z M 4722.0 368 L 4722.0 624 L 4434.0 624 L 4434.0 368 L 4722.0 368 Z M 4434.0 624 L 4434.0 1200 L 4146.0 1200 L 4146.0 624 L 4434.0 624 Z"/></g><g clip-path="url(#band-middle)" style="animation:none"><path fill="#000" d="M 2880 -2880 L 2880 -1920 L 960 -1920 L 960 -960 L 3840 -960 L 3840 0 L 960 0 L 0 0 L 0 -3840 L 0 -4800 L 3840 -4800 L 3840 -3840 L 960 -3840 L 960 -2880 L 2880 -2880 Z"/><path fill="#000" d="M 5010.0 -272 L 5010.0 48 L 3858.0 48 L 3858.0 -272 L 5010.0 -272 Z M 5010.0 48 L 5010.0 336 L 4722.0 336 L 4722.0 48 L 5010.0 48 Z M 4722.0 368 L 4722.0 624 L 4434.0 624 L 4434.0 368 L 4722.0 368 Z M 4434.0 624 L 4434.0 1200 L 4146.0 1200 L 4146.0 624 L 4434.0 624 Z"/></g><g clip-path="url(#band-bottom)" style="animation:glitch-bottom-0 15s infinite"><path fill="#000" d="M 2880 -2880 L 2880 -1920 L 960 -1920 L 960 -960 L 3840 -960 L 3840 0 L 960 0 L 0 0 L 0 -3840 L 0 -4800 L 3840 -4800 L 3840 -3840 L 960 -3840 L 960 -2880 L 2880 -2880 Z"/><path fill="#000" d="M 5010.0 -272 L 5010.0 48 L 3858.0 48 L 3858.0 -272 L 5010.0 -272 Z M 5010.0 48 L 5010.0 336 L 4722.0 336 L 4722.0 48 L 5010.0 48 Z M 4722.0 368 L 4722.0 624 L 4434.0 624 L 4434.0 368 L 4722.0 368 Z M 4434.0 624 L 4434.0 1200 L 4146.0 1200 L 4146.0 624 L 4434.0 624 Z"/></g><g clip-path="url(#band-top)" style="animation:glitch-top-1 15s infinite"><path fill="#000" d="M 5997.0 -4800 L 5997.0 0 L 5037.0 0 L 5037.0 -4800 L 5997.0 -4800 Z"/><path fill="#000" d="M 6877.0 240 L 6877.0 48 L 6305.0 48 L 6305.0 240 L 6877.0 240 Z M 6305.0 560 L 6015.0 560 L 6015.0 48 L 6303.0 48 L 6303.0 -272 L 7167.0 -272 L 7167.0 16 L 7167.0 880 L 6879.0 880 L 6879.0 1200 L 6015.0 1200 L 6015.0 880 L 6877.0 880 L 6877.0 560 L 6305.0 560 Z"/></g><g clip-path="url(#band-middle)" style="animation:none"><path fill="#000" d="M 5997.0 -4800 L 5997.0 0 L 5037.0 0 L 5037.0 -4800 L 5997.0 -4800 Z"/><path fill="#000" d="M 6877.0 240 L 6877.0 48 L 6305.0 48 L 6305.0 240 L 6877.0 240 Z M 6305.0 560 L 6015.0 560 L 6015.0 48 L 6303.0 48 L 6303.0 -272 L 7167.0 -272 L 7167.0 16 L 7167.0 880 L 6879.0 880 L 6879.0 1200 L 6015.0 1200 L 6015.0 880 L 6877.0 880 L 6877.0 560 L 6305.0 560 Z"/></g><g clip-path="url(#band-bottom)" style="animation:glitch-bottom-1 15s infinite"><path fill="#000" d="M 5997.0 -4800 L 5997.0 0 L 5037.0 0 L 5037.0 -4800 L 5997.0 -4800 Z"/><path fill="#000" d="M 6877.0 240 L 6877.0 48 L 6305.0 48 L 6305.0 240 L 6877.0 240 Z M 6305.0 560 L 6015.0 560 L 6015.0 48 L 6303.0 48 L 6303.0 -272 L 7167.0 -272 L 7167.0 16 L 7167.0 880 L 6879.0 880 L 6879.0 1200 L 6015.0 1200 L 6015.0 880 L 6877.0 880 L 6877.0 560 L 6305.0 560 Z"/></g></svg>