<svg xmlns="http://www.w3.org/2000/svg" width="1200" height="265" fill="none" viewBox="0 0 1200 265"><g clip-path="url(#a)"><path fill="#000" d="M456.1 140.1c-4.3-4.5-9.8-7.9-16.6-10.1 19.7-8.2 23.8-32.9 13.2-49.3-9.3-13.2-25.3-16.5-42.4-16.7h-55.2v140h26.6c16.2-.4 46.8 2 60.8-4.5 24.2-8 30.9-41.5 13.6-59.4m-48-53.3c6.7 0 12.1 1.2 16.3 3.6 10 5.7 8.2 26.7-4.5 29.1-7.2 2.6-30.2 1.2-38.2 1.5V86.8zm23.6 89.9c-4.4 3-10.3 4.5-17.8 4.5h-32.2v-38.8h32.2c7.5 0 13.4 1.5 17.8 4.4 8.8 4.9 8.8 24.8 0 29.9m95.9 29.6c-25.3.7-46.1-17.7-45.2-43.8v-61.4h25.2V161c-.3 14 7 22.8 20 23 13-.2 20.2-9 20-23v-59.8h25v61.4c.9 25.9-19.9 44.4-45 43.7m139-137v47c-10.4-19.2-38.4-22.6-55.9-10.6-15.2 10.2-22.6 27.8-22.5 46.8-.1 18.8 7.4 36.7 22.5 46.8 17.4 12.1 45.4 8.6 55.9-10.5V204h25V63zm-6.9 106.5c-9.2 10.9-29.2 10.9-38.4 0-9.9-9.9-9.9-36.5 0-46.4 9.2-10.9 29.2-10.9 38.4 0 9.8 9.8 9.8 36.5 0 46.4m71.2-87c-21.9.5-21.8-30.8 0-30.4 21.5-.1 21.6 30.6 0 30.4m12.2 12.4V204h-25V101.2zM867 124.9c-12.4-28.7-55.7-36.9-72.4-8.5V63l-25 6.3V204h25v-15.1c10.4 19.1 38.7 22.6 56 10.5 23-14.9 28.1-51 16.4-74.5m-27 50.9c-9.2 10.9-29.2 10.9-38.4 0-9.9-9.9-9.9-36.5 0-46.4 9.2-10.9 29.2-10.9 38.4 0 9.9 9.8 9.9 36.5 0 46.4m133.4-59.4c-19.3-26.2-71.1-23.6-83.3 8.7l21.1 8.9c6.5-15.1 32.1-18.1 40.9-4 3.4 4.8 2.7 15.2 2.7 21.4-19.4-18.4-69.8-9.6-68.8 22.9-1.3 34.2 52.3 41.8 70.4 19.7v9.9h23.4v-64.6c0-9.3-2.2-16.9-6.4-22.9m-24.2 67.9c-7.5 5-23.8 4.9-31.3.1-8.1-4.3-8.1-16.5 0-20.8 10.5-6 36.8-6 37.3 10.4 0 4.4-2 7.8-6 10.3m94.5 22c-21.5.4-42.2-11.7-46.8-34l20.2-6.6c2.7 13.5 13.6 20.2 26.6 20.2 8.5-.2 18.4-1.8 19.2-10.2-.7-8.8-9.5-9.2-18.6-12.2-12.1-2.4-29.6-7.6-35.8-14.5-11.8-10.9-10.5-32.6 3.2-41.9 22.6-16.8 70.8-8.8 74 24.8l-20.8 5.4c-2.1-12.8-11.4-18.1-23.4-18.2-7.8.1-16.6 2-17.2 9.8 1 9.2 12.3 9.3 20 12 11.7 2.3 28 7 34.5 14.2 9.8 8.9 10.7 25.7 2.7 36-8.6 11.2-22.9 15.2-37.8 15.2m150.1-82.1c-11.5-25-45.5-32.3-68.1-18.7-16.4 9.8-24.2 27.3-24.1 47.1-.1 19.7 8 37.5 24.6 47.1 24.1 14 60.8 6 71.8-21.8l-21.5-7.7c-6.5 14-24.8 18.5-37.7 11.2-7.5-4.6-11-13.8-11.8-23.2h72.7c1-11.9-1-24.7-5.9-34m-42.2-5.2c12.7 0 20.9 9.2 22.9 21.8h-46.7c2.2-12.9 10.2-21.9 23.8-21.8"/><path fill="#ff4e4e" d="M158.2 8.6v108c0 4.7 3.8 8.6 8.6 8.6h47c4.2 0 8.2-2 10.8-5.4l38.3-50.9c2.8-3.7 2.8-8.8 0-12.5l-38.3-51C222 2 218 0 213.8 0h-47c-4.8 0-8.6 3.8-8.6 8.6"/><path fill="#6e56ff" d="M158.2 148.4v108c0 4.7 3.8 8.6 8.6 8.6h47c4.2 0 8.2-2 10.8-5.4l38.3-50.9c2.8-3.7 2.8-8.8 0-12.5l-38.3-50.9c-2.5-3.4-6.5-5.4-10.8-5.4h-47c-4.8-.1-8.6 3.8-8.6 8.5"/><path fill="#f97777" d="M0 8.6v108c0 4.7 3.8 8.6 8.6 8.6h101c4.2 0 8.2-2 10.8-5.4l35.5-47.3c4.4-5.9 4.4-14 0-19.9L120.3 5.4C117.8 2 113.8 0 109.5 0H8.6C3.8 0 0 3.8 0 8.6"/><path fill="#9f8fff" d="M0 148.4v108c0 4.7 3.8 8.6 8.6 8.6h101c4.2 0 8.2-2 10.8-5.4l35.5-47.3c4.4-5.9 4.4-14 0-19.9l-35.5-47.3c-2.5-3.4-6.5-5.4-10.8-5.4H8.6c-4.8.1-8.6 4-8.6 8.7"/></g><defs><clipPath id="a"><path fill="#fff" d="M0 0h1200v265H0z"/></clipPath></defs></svg>