<svg xmlns="http://www.w3.org/2000/svg" xmlns:xlink="http://www.w3.org/1999/xlink" data-name="Layer 1" viewBox="0 0 96 96"><defs><linearGradient id="a" x1="-2288.19" x2="-2290.72" y1="3162.77" y2="3187.18" gradientTransform="translate(4039.33 -5462.46)scale(1.75)" gradientUnits="userSpaceOnUse"><stop offset="0" stop-color="#502d95"/><stop offset=".1" stop-color="#6d37ac"/><stop offset=".57" stop-color="#6786d1"/></linearGradient><linearGradient xlink:href="#a" id="d" x1="-2273.52" x2="-2276.05" y1="3164.28" y2="3188.7"/><linearGradient id="b" x1="-1907.6" x2="-1907.6" y1="2952.38" y2="2974.59" gradientTransform="translate(4109.3 -6186.12)scale(2.12)" gradientUnits="userSpaceOnUse"><stop offset="0" stop-color="#763dcd"/><stop offset=".22" stop-color="#8d61eb"/><stop offset=".37" stop-color="#8c86ec"/><stop offset=".64" stop-color="#748ce8"/><stop offset=".9" stop-color="#6ba1e6"/></linearGradient><linearGradient xlink:href="#b" id="e" x1="-1918.74" x2="-1918.74" y2="2974.59"/><linearGradient xlink:href="#b" id="f" x1="-1924.52" x2="-1924.52" y2="2974.59"/><linearGradient xlink:href="#b" id="g" x1="-1913.35" x2="-1913.35" y2="2974.59"/><linearGradient id="h" x1="-1760.05" x2="-1732.19" y1="3099.23" y2="3130.18" gradientTransform="translate(3182.56 -5512.01)scale(1.79)" gradientUnits="userSpaceOnUse"><stop offset="0" stop-color="#c395fc"/><stop offset="1" stop-color="#4f65f5"/></linearGradient><linearGradient id="i" x1="-1360.35" x2="-1360.35" y1="6519.82" y2="6560.46" gradientTransform="matrix(.51 0 0 .51 727.31 -3304.43)" gradientUnits="userSpaceOnUse"><stop offset="0" stop-color="#fff" stop-opacity=".4"/><stop offset="1" stop-color="#fff" stop-opacity="0"/></linearGradient><linearGradient id="j" x1="-1566.33" x2="-1591.42" y1="4189.27" y2="4207.71" gradientTransform="translate(1655.89 -4232.25)scale(1.02)" gradientUnits="userSpaceOnUse"><stop offset="0" stop-color="#f9f9f9"/><stop offset="1" stop-color="#f9f9f9" stop-opacity="0"/></linearGradient><linearGradient id="k" x1="-1366.19" x2="-1354.06" y1="3503.63" y2="3516.01" gradientTransform="translate(1993.05 -4967.71)scale(1.43)" gradientUnits="userSpaceOnUse"><stop offset="0" stop-color="#0043a2"/><stop offset="1" stop-color="#00133a"/></linearGradient><clipPath id="c"><path d="M96 48c0 26.31-21.18 47.71-47.48 48C22.21 96.28.58 75.33.01 49.03-.55 22.73 20.16.87 46.46.03c26.3-.85 48.37 19.63 49.5 45.92" style="stroke-width:0;fill:none"/></clipPath></defs><path d="M96 48c0 26.31-21.18 47.71-47.48 48C22.21 96.28.58 75.33.01 49.03-.55 22.73 20.16.87 46.46.03c26.3-.85 48.37 19.63 49.5 45.92" style="stroke-width:0;fill:#000b25;isolation:isolate"/><g style="clip-path:url(#c)"><path d="m37.95 70.69-5.06-1.13s-1.17 7.43-1.61 11.15c-.71 6.02-1.57 14.34-1.23 20.71.37 7.01 2.29 13.76 2.92 13.76s-.34-4.29.1-13.75c.29-6.3 1.33-13.87 2.58-20.72.62-3.38 2.42-10.02 2.42-10.02z" style="stroke-width:0;fill:url(#a)"/><path d="M59.31 70.16h1.55c2.08 7.76 2.47 18.96 2.02 27.4-.49 9.29-3.03 18.23-3.87 18.23s.45-5.69-.13-18.21c-.39-8.35-2.16-16.2-2.35-27.41h2.78Z" style="stroke-width:0;fill:url(#d)"/><path d="M63.99 45.86h2.49c3.33 12.42 4.89 30.36 4.17 43.88-.79 14.88-4.85 29.2-6.2 29.2s.71-9.11-.21-29.17c-.62-13.38-4.41-25.95-4.7-43.91H64z" style="stroke-width:0;fill:url(#b)"/><path d="M42.77 45.59h-2.49c-3.33 12.42-4.89 30.36-4.17 43.88.79 14.88 4.85 29.2 6.2 29.2s-.71-9.11.21-29.17c.62-13.38 4.41-25.95 4.7-43.91h-4.46Z" style="stroke-width:0;fill:url(#e)"/><path d="m35.08 39.95-5.67-2.02s-2.08 13.26-2.87 19.92c-1.26 10.75-3.75 25.61-3.14 36.99.67 12.53 4.09 24.58 5.22 24.58s-.6-7.67.18-24.56c.52-11.26 3.97-21.94 5.14-37.01.47-5.99 1.37-17.9 1.37-17.9z" style="stroke-width:0;fill:url(#f)"/><path d="m53.81 45.86-5.11.87s.68 9.93.68 15.58c0 9.16.36 18.42.33 28.03-.03 11.05 1.81 29.55 2.77 29.55s4.06-23.82 4.72-38.06c.44-9.5-.97-17.84-1.22-23.52-.22-5.06-.93-11.88-.93-11.88l-1.25-.58Z" style="stroke-width:0;fill:url(#g)"/><path d="M81.99 48.88c0 12.9-2.19 13.68-5.78 19.15-2.58 3.92 2.64 6.96.55 8.04-2.5 1.29-1.71-1.05-6.67-2.38-2.15-.57-6.84.06-8.74.43-1.88.36-7.61-2.83-9.14-3.24-2.27-.61-7.84 2.35-11.23 2.35s-6.94-2.96-11.46-1.75c-5.36 1.44-11.83 4.94-12.81 3.79-1.88-2.19 4.1-3.86 1.88-7.76-1.4-2.47-6.27-8.98-6.41-15.56-.45-21.16 17.07-39.03 35.84-39.03S81.97 29.2 81.97 47.41" style="stroke-width:0;fill:url(#h)"/><path d="M46.85 19.63c-10.25 0-24.58 10.61-24.58 20.86 0 1.14-.92 2.06-2.06 2.06s-2.06-.92-2.06-2.06c0-12.52 16.17-24.98 28.7-24.98 1.14 0 2.06.92 2.06 2.06s-.92 2.06-2.06 2.06" style="fill:url(#i);fill-rule:evenodd;stroke-width:0"/><path d="M62.02 58.41c-1.09 1.78-2.57 3.21-4.32 4.19-.75.41-1.54.74-2.36.98-2.45 1.1-5.2 1.69-7.99 1.75-9.53.17-17.44-5.92-17.75-13.65-.15-3.79 2.11-7.72 3.86-10.75 1.48-2.56 4.03-6.97 7.39-8.73 6.85-3.6 16.08.21 20.7 8.55 1.34 2.42 2.19 5.07 2.48 7.71.21.86.33 1.74.34 2.62.03 2.29-.63 4.55-1.91 6.58q-.195.39-.42.75z" style="stroke-width:0;fill:url(#j)"/><path d="M46.97 39.46c5.94 0 10.75 4.81 10.75 10.75s-4.81 10.75-10.75 10.75-10.75-4.81-10.75-10.75c0-1.1.16-2.16.47-3.17a5.37 5.37 0 1 0 7.1-7.1c1-.31 2.06-.47 3.17-.47h.01Z" style="stroke-width:0;fill:url(#k)"/></g></svg>