<svg xmlns="http://www.w3.org/2000/svg" width="2545.537" height="1175.447" viewBox="0 0 2545.537 1175.447"><path d="M850.062 88.586c-45.537 6.606-90.202 11.1-134.667 24.396-132.74 39.688-255.112 128.521-324.784 249.722-24.1 41.926-44.767 85.766-59.197 132-4.49 14.387-8.79 29.157-11.47 44-1.365 7.565-1.532 18.912-6.493 25.13-8.642 10.829-33.637 16.834-46.056 23.197-29.967 15.353-59.61 34.211-85.333 56.025-69.59 59.01-124.356 143.178-93.704 236.981 7.106 21.747 19.5 42.745 32.617 61.333 17.673 25.046 39.929 45.711 63.754 64.766 72.2 57.744 159.874 93.868 246.666 123.234 88.47 29.934 178.681 54.608 270.667 71.216 406.833 73.457 825.223 85.922 1233.333 12.235 194.467-35.112 392.344-81.957 558.667-193.673 59.93-40.254 123.037-103.378 130.488-179.111 3.064-31.148-5.309-63.653-17.71-92-32.9-75.199-112.648-129.614-183.445-165.012-22.536-11.268-45.662-21.43-69.333-30.087-7.877-2.88-24.68-6.2-29.66-13.11-7.805-10.832-9.025-32.243-13.025-45.124-9.522-30.66-20.599-60.567-34.982-89.334-52.269-104.537-138.342-192.169-241-247.617-165.817-89.562-370.202-90.98-540-12.568-49.015 22.636-97.046 54.79-136 92.21-11.401 10.953-22.575 21.795-33.413 33.309-2.618 2.781-8.288 10.633-12.704 9.975-3.632-.54-7.458-6.214-9.883-8.642l-22.666-22.667a495.2 495.2 0 0 0-81.334-65.759c-74.98-48.51-161.9-80.14-250.666-90.413-31.79-3.68-66.667-9.253-98.667-4.612m86.667 100.784c9.687 8.228 21.08 14.372 30.666 22.852 22.569 19.964 38.999 46.63 50.099 74.482 4.974 12.481 10.43 26.65 12.222 40 2.59 19.293-.97 34.157 15.037 49.154 33.49 31.379 88.437 5.286 83.796-41.154-2.674-26.769-15.102-53.553-29.21-76-5.313-8.455-22.145-23.926-21.277-33.334 54.27 23.97 105.41 49.426 148 92 10.49 10.486 30.188 24.3 35.154 38.667 3.376 9.765-15.422 33.694-20.265 42.667-7.355 13.626-14.092 27.491-21.013 41.333-2.72 5.443-4.974 12.955-10.061 16.698-6.064 4.46-20.318 4.784-27.815 6.314-19.296 3.938-38.106 10.095-57.333 14.321-27.222-45.543-80.075-66.647-128-38.284-24.036 14.225-56.701 52.324-21.334 73.55 18.805 11.286 32.912-2.386 50.667.734-6.201 9.084-16.324 14.085-25.333 20-16.378 10.755-32.423 21.237-48 33.167-39.054 29.909-72.212 66.591-103.655 104.167-13.443 16.064-26.163 34.14-37.105 52-3.593 5.865-7.136 18.137-13.938 20.697-15.52 5.843-40.754.156-57.302.66-46.953 1.432-94.297-.024-141.334-.024-62.156 0-142.74 16.763-180.76-45.333-24.18-39.493-19.01-85.949-11.56-129.334 18.75-109.217 79.222-210.238 165.654-279.197 30.438-24.285 77.012-57.958 117.333-60.803-3.199 10.99-12.646 20.666-18.303 30.667-13.87 24.523-27.503 53.737-25.617 82.667 3.23 49.526 64.256 59.336 92.648 25.154 12.622-15.196 8.083-43.539 13.544-62.488 13.993-48.557 39.466-88.343 83.061-114.666 5.672 11.028 2.667 27.791 2.667 40v90.666c0 13.77-2.805 30.39 4.58 42.667 20.02 33.283 82.557 33 90.846-10.667 2.404-12.663.574-27.128.574-40v-80c.021-10.92-4.504-35.634 2.667-44m769.333 1.334c0 40.078-1.333 79.973-1.333 120 0 14.641-2.409 39.388 5.444 52 20.804 33.412 73.86 33.68 91-4 6.452-14.184 3.556-32.817 3.556-48 0-23.644-1.334-47.039-1.334-70.667 0-14.54 2.236-31.192-1.333-45.333l1.333-1.334c47.55 15.937 74.958 73.805 86.173 118.667 6.095 24.381.258 50.237 23.16 67.03 27.34 20.049 70.142 8.883 83.426-23.03 7.753-18.624 2.278-38.141-5.308-56-6.49-15.278-14.31-30.695-24.315-44-5.923-7.877-16.923-17.185-19.136-26.667 39.885 8.037 78.641 32.142 110.667 56.16 87.05 65.288 151.19 159.093 167.006 267.84 7.655 52.63 12.854 123.98-28.42 165.253-27.775 27.775-66.57 24.08-102.586 24.08h-180c-27.322 0-58.502 4.224-85.333 0-.33-6.273-6.56-10.818-10.025-16-9.4-14.059-19.026-27.995-29.426-41.333-34.142-43.788-72.436-84.407-116.55-118.376-17.016-13.104-34.556-25.298-52-37.809-5.666-4.064-16.608-8.77-20.117-14.883-4.101-7.145 7.7-5.283 10.784-4.277 7.304 2.38 13.698 6.824 21.334 8.123 21.146 3.598 59.85-8.647 54.24-36.778-2.516-12.617-12.944-23.833-22.247-32-30.04-26.37-76.572-31.812-110.66-9.993-11.053 7.074-21.81 15.77-30.093 25.993-3.293 4.066-6.566 13.682-12.599 13.747-7.039.077-15.991-4.874-22.641-7.08-13.918-4.618-28.314-8.705-42.667-11.728-41.44-8.73-82.497-9.251-124-14.939 5.252-14.945 15.26-30.379 23.432-44 35.253-58.762 82.315-107.032 140.568-143.216 18.542-11.517 39.023-20.588 60-26.666 6.598-1.912 13.145-6.114 20-4.784-23.913 35.496-53.708 70.173-51.975 116 1.781 47.123 59.047 56.945 89.308 31.444 19.447-16.387 13.822-48.227 20.55-71.444 13.294-45.883 38.574-89.312 82.117-112m292 233.882c-27.313 4.015-52.832 16.818-69.475 39.451-12.539 17.05-14.948 36.313 4.142 49.914 14.615 10.413 31.952 10.012 48 3.79 8.142-3.157 16.282-8.855 25.333-8.778 8.075.068 15.478 5.94 22.667 8.932 10.96 4.562 22.794 6.236 34.666 4.605 30.958-4.252 33.856-35.817 19.056-57.13-18.545-26.704-50.847-45.714-84.39-40.784M643.396 425.92c-27.686 4.07-51.556 17.486-67.753 40.784-12.416 17.86-13.638 36.653 6.42 49.228 13.763 8.63 31.284 6.275 45.333-.284 6.602-3.082 15.011-10.176 22.667-9.642 7.047.492 13.78 6.748 20 9.642 9.363 4.356 20.47 5.52 30.667 4.037 31.305-4.553 40.282-34.853 23.03-58.315-17.587-23.917-50.451-39.847-80.364-35.45m620 120.784c4.53 13.907 1.047 32.287.445 46.747-1.017 24.395.428 48.765-.01 73.253-.243 13.695-2.783 33.958 3.154 46.666 17.182 36.777 73.714 35.729 90.944 0 6.71-13.91 2.797-35.488 2.797-50.666 0-37.804-3.038-77.121 1.333-114.667 13.272 2.044 26.814 14.832 36 24 26.91 26.857 44.698 60.658 54.475 97.333 5.996 22.49 2.128 43.884 22.939 60.142 32.23 25.18 90.767 2.666 83.364-42.808-3.745-23.001-13.738-44.71-26.568-64-5.3-7.97-19.1-19.374-16.877-29.334 27.903 13.517 57.012 23.991 84 39.568 40.618 23.443 78.726 59.818 105.883 97.766 26.07 36.427 47.425 72.788 63.71 114.666 18.834 48.431 28.323 101.577 25.148 153.334-2.16 35.222-14.331 69.7-45.407 89.759-18.809 12.14-41.173 11.574-62.667 11.574h-700c-32.865 0-77.55 7.41-106.667-10.519-56.383-34.717-53.583-119.698-41.605-176.148 23.772-112.023 87.692-214.975 182.939-279.981 25.8-17.608 54.776-26.83 82.666-40.019.903 8.644-10.48 19.132-14.87 26.667-11.11 19.071-20.992 37.997-24.574 60-8.23 50.552 47.212 76.161 84.771 46.037 19.968-16.015 14.409-40.456 21.686-62.037 15.122-44.848 44.873-100.849 92.987-117.333m500 104 1.334 1.333zm5.334 6.666 1.333 1.334zm58.666 80-1.333 1.334zm-751.996 51.216c-26.8 3.94-51.464 17.655-66.58 40.784-11.25 17.215-11.615 37.937 6.58 50.414 12.18 8.352 29.053 8.931 42.667 3.679 7.704-2.972 16.796-9.58 25.333-9.296 16.051.532 27.56 12.462 45.334 9.5 34.35-5.726 43.165-34.455 23.808-60.963-16.016-21.933-49.792-38.138-77.142-34.118m416 1.34c-24.11 3.935-48.892 19.793-61.586 40.778-7.802 12.897-9.862 28.864 2.944 39.37 14.029 11.51 31.488 16.607 49.309 11.272 7.566-2.266 16.537-9.837 24.55-9.247 16.512 1.214 27.877 14.608 46.117 11.568 34.798-5.8 38.088-38.43 19.37-62.297-17.993-22.94-51.924-36.14-80.704-31.444" style="fill:#010101;stroke:none" transform="translate(-79.647 -86.822)"/></svg>