<svg xmlns="http://www.w3.org/2000/svg" xml:space="preserve" id="Layer_1" x="0" y="0" viewBox="0 0 154.3 154.2"><style>.st1{fill:#231f20}</style><circle cx="77.2" cy="77.1" r="75.8" style="fill:#fff;stroke:#fff;stroke-width:2;stroke-miterlimit:10"/><path d="M76.2 125.5c-25.5 0-52.9-5-52.9-16s27.4-16 52.9-16 52.9 5 52.9 16c.1 11-27.4 16-52.9 16m0-25.7c-13 0-25.2 1.3-34.4 3.7-10 2.6-12.2 5.4-12.2 6s2.2 3.4 12.2 6c9.1 2.4 21.4 3.7 34.4 3.7s25.2-1.3 34.4-3.7c10-2.6 12.2-5.4 12.2-6s-2.2-3.4-12.2-6c-9.1-2.4-21.4-3.7-34.4-3.7" class="st1"/><path d="M48.3 102.1c8.2-1.3 28.2-7.4 37.5-11.5l18.9 2.8c-3.9 3.6-6.6 6.8-10.1 9.7z" style="fill:#fff"/><path d="M76.2 60.8c-25.5 0-52.9-5-52.9-16s27.4-16 52.9-16 52.9 5 52.9 16c.1 11-27.4 16-52.9 16m0-25.7c-13 0-25.2 1.3-34.4 3.7-10 2.6-12.2 5.4-12.2 6s2.2 3.4 12.2 6c9.1 2.4 21.4 3.7 34.4 3.7s25.2-1.3 34.4-3.7c10-2.6 12.2-5.4 12.2-6s-2.2-3.4-12.2-6c-9.1-2.4-21.4-3.7-34.4-3.7m44 37.5c-36.1 42.3-58.5 48.1-63.5 48.1-.3 0-27.2-5.9-27.3-5.9l-.9-5.3c21.5-2.3 61-9.5 91.7-36.9" class="st1"/><path d="M83.8 88.6c7.5-3.5 26.1-20.8 24-32.8l21.3-11c.1 28.5-39 40.4-45.3 43.8" class="st1"/></svg>