<svg xmlns="http://www.w3.org/2000/svg" width="6850" height="6429" viewBox="177 -5312 6850 6429"><path fill="#000" d="M 4539 0 L 3049 -4240 Q 2995 -4387, 2849 -4387 Q 2703 -4387, 2650 -4240 L 1160 0 L 177 0 L 1820 -4626 Q 1943 -4973, 2212 -5142 L 2212 -5142 Q 2481 -5312, 2849 -5312 Q 3218 -5312, 3487 -5142 L 3487 -5142 Q 3756 -4973, 3878 -4626 L 5522 0 L 4539 0 Z"/><path fill="#000" d="M 5963.0 103 Q 5993.0 128, 6023.0 143 L 6023.0 143 Q 6053.0 157, 6094.0 157 L 6567.0 157 Q 6650.0 157, 6699.0 104 L 6699.0 104 Q 6749.0 51, 6749.0 -25 Q 6749.0 -97, 6696.0 -151 L 6696.0 -151 Q 6643.0 -205, 6569.0 -205 L 6092.0 -205 Q 6055.0 -205, 6023.0 -190 L 6023.0 -190 Q 5991.0 -176, 5966.0 -151 L 5966.0 -151 Q 5942.0 -126, 5927.0 -93 L 5927.0 -93 Q 5912.0 -61, 5912.0 -25 Q 5912.0 51, 5963.0 103 Z M 6700.0 781 Q 6749.0 722, 6749.0 630 Q 6749.0 552, 6696.0 494 L 6696.0 494 Q 6643.0 435, 6569.0 435 L 6092.0 435 Q 6055.0 435, 6023.0 451 L 6023.0 451 Q 5991.0 467, 5966.0 494 L 5966.0 494 Q 5942.0 520, 5927.0 556 L 5927.0 556 Q 5912.0 591, 5912.0 630 Q 5912.0 717, 5961.0 778 L 5961.0 778 Q 6011.0 839, 6094.0 839 L 6567.0 839 Q 6645.0 839, 6700.0 781 Z M 6528.0 -483 Q 6663.0 -483, 6759.0 -447 L 6759.0 -447 Q 6855.0 -412, 6914.0 -349 L 6914.0 -349 Q 6974.0 -287, 7000.0 -203 L 7000.0 -203 Q 7027.0 -119, 7027.0 -21 Q 7027.0 64, 6986.0 153 L 6986.0 153 Q 6945.0 241, 6852.0 296 Q 6945.0 353, 6986.0 444 L 6986.0 444 Q 7027.0 535, 7027.0 634 Q 7027.0 724, 7000.0 812 L 7000.0 812 Q 6974.0 899, 6914.0 967 L 6914.0 967 Q 6855.0 1034, 6760.0 1076 L 6760.0 1076 Q 6666.0 1117, 6528.0 1117 L 6136.0 1117 Q 5998.0 1117, 5902.0 1076 L 5902.0 1076 Q 5806.0 1034, 5747.0 966 L 5747.0 966 Q 5689.0 897, 5662.0 811 L 5662.0 811 Q 5636.0 724, 5636.0 634 Q 5636.0 535, 5675.0 444 L 5675.0 444 Q 5714.0 353, 5806.0 296 Q 5714.0 241, 5675.0 153 L 5675.0 153 Q 5636.0 64, 5636.0 -21 Q 5636.0 -119, 5663.0 -203 L 5663.0 -203 Q 5691.0 -287, 5751.0 -349 L 5751.0 -349 Q 5811.0 -412, 5905.0 -447 L 5905.0 -447 Q 6000.0 -483, 6136.0 -483 L 6528.0 -483 Z"/></svg>