<svg xmlns="http://www.w3.org/2000/svg" width="5010" height="6000" viewBox="-200 -4800 5410 6000"><defs><clipPath id="band-top"><path d="M-200-4800H5210V-3595H-200z"/></clipPath><clipPath id="band-middle"><path d="M-200-3602H5210V2H-200z"/></clipPath><clipPath id="band-bottom"><path d="M-200-2H5210V1203H-200z"/></clipPath><style>@keyframes glitch-bottom-0{0%,19.91%,20.77%,65.72%,66.07%,to{transform:translateX(0)}19.92%,20.76%,65.73%,66.06%{transform:translateX(200px)}}@keyframes glitch-top-0{0%,65.22%,66.24%,to{transform:translateX(0)}65.23%,66.23%{transform:translateX(-200px)}}</style></defs><g clip-path="url(#band-top)" style="animation:glitch-top-0 15s infinite"><path fill="#000" d="M 960 -1920 L 960 0 L 0 0 L 0 -3840 L 0 -4800 L 960 -4800 L 2880 -4800 L 3840 -4800 L 3840 -3840 L 3840 0 L 2880 0 L 2880 -1920 L 960 -1920 Z M 2880 -2880 L 2880 -3840 L 960 -3840 L 960 -2880 L 2880 -2880 Z"/><path fill="#000" d="M 4722.0 240 L 4722.0 -272 L 5010.0 -272 L 5010.0 1200 L 4722.0 1200 L 4722.0 560 L 3858.0 560 L 3858.0 283 L 3858.0 -272 L 4146.0 -272 L 4146.0 240 L 4722.0 240 Z"/></g><g clip-path="url(#band-middle)" style="animation:none"><path fill="#000" d="M 960 -1920 L 960 0 L 0 0 L 0 -3840 L 0 -4800 L 960 -4800 L 2880 -4800 L 3840 -4800 L 3840 -3840 L 3840 0 L 2880 0 L 2880 -1920 L 960 -1920 Z M 2880 -2880 L 2880 -3840 L 960 -3840 L 960 -2880 L 2880 -2880 Z"/><path fill="#000" d="M 4722.0 240 L 4722.0 -272 L 5010.0 -272 L 5010.0 1200 L 4722.0 1200 L 4722.0 560 L 3858.0 560 L 3858.0 283 L 3858.0 -272 L 4146.0 -272 L 4146.0 240 L 4722.0 240 Z"/></g><g clip-path="url(#band-bottom)" style="animation:glitch-bottom-0 15s infinite"><path fill="#000" d="M 960 -1920 L 960 0 L 0 0 L 0 -3840 L 0 -4800 L 960 -4800 L 2880 -4800 L 3840 -4800 L 3840 -3840 L 3840 0 L 2880 0 L 2880 -1920 L 960 -1920 Z M 2880 -2880 L 2880 -3840 L 960 -3840 L 960 -2880 L 2880 -2880 Z"/><path fill="#000" d="M 4722.0 240 L 4722.0 -272 L 5010.0 -272 L 5010.0 1200 L 4722.0 1200 L 4722.0 560 L 3858.0 560 L 3858.0 283 L 3858.0 -272 L 4146.0 -272 L 4146.0 240 L 4722.0 240 Z"/></g></svg>