<svg xmlns="http://www.w3.org/2000/svg" width="6721" height="6476" viewBox="176 -5359 7121 6476"><defs><clipPath id="band-top"><path d="M176-5359H7297V-4059H176z"/></clipPath><clipPath id="band-middle"><path d="M176-4065H7297V-176H176z"/></clipPath><clipPath id="band-bottom"><path d="M176-180H7297V1120H176z"/></clipPath><style>@keyframes glitch-bottom{0%,10.58%,44.78%,45.13%,9.73%,to{transform:translateX(0)}10.57%,44.79%,45.12%,9.74%{transform:translateX(200px)}}@keyframes glitch-top{0%,44.28%,45.3%,to{transform:translateX(0)}44.29%,45.29%{transform:translateX(-200px)}}</style></defs><g clip-path="url(#band-top)" style="animation:glitch-top 30s infinite"><path fill="#fff" d="M 1306 0 L 376 0 L 376 -5312 L 1306 -5312 L 1306 -3624 L 4808 -5359 L 4808 -4294 L 1283 -2660 L 4808 -978 L 4808 54 L 1306 -1696 L 1306 0 Z"/><path fill="#fff" d="M 4897.0 -483 Q 5000.0 -483, 5101.0 -448 L 5101.0 -448 Q 5203.0 -413, 5283.0 -346 L 5283.0 -346 Q 5364.0 -279, 5413.0 -176 L 5413.0 -176 Q 5463.0 -74, 5463.0 58 L 5463.0 1117 L 5182.0 1117 L 5182.0 53 Q 5182.0 -12, 5160.0 -61 L 5160.0 -61 Q 5138.0 -110, 5100.0 -141 L 5100.0 -141 Q 5062.0 -172, 5009.0 -188 L 5009.0 -188 Q 4956.0 -205, 4897.0 -205 L 4897.0 -483 Z"/><path fill="#fff" d="M 6712.6 -483 Q 6906.6 -483, 7001.6 -381 L 7001.6 -381 Q 7097.6 -279, 7097.6 -116 Q 7097.6 3, 7038.6 97 L 7038.6 97 Q 6980.6 191, 6841.6 251 L 5971.6 635 Q 5931.6 653, 5906.6 684 L 5906.6 684 Q 5881.6 714, 5881.6 753 L 5881.6 839 L 7058.6 839 L 7058.6 1117 L 5602.6 1117 L 5602.6 749 Q 5602.6 712, 5611.6 663 L 5611.6 663 Q 5620.6 614, 5648.6 564 L 5648.6 564 Q 5676.6 514, 5726.6 465 L 5726.6 465 Q 5777.6 416, 5858.6 382 L 6733.6 -3 Q 6777.6 -21, 6799.6 -55 L 6799.6 -55 Q 6821.6 -89, 6821.6 -121 Q 6821.6 -158, 6800.6 -181 L 6800.6 -181 Q 6779.6 -205, 6719.6 -205 L 5662.6 -205 L 5662.6 -483 L 6712.6 -483 Z"/></g><g clip-path="url(#band-middle)" style="animation:none"><path fill="#fff" d="M 1306 0 L 376 0 L 376 -5312 L 1306 -5312 L 1306 -3624 L 4808 -5359 L 4808 -4294 L 1283 -2660 L 4808 -978 L 4808 54 L 1306 -1696 L 1306 0 Z"/><path fill="#fff" d="M 4897.0 -483 Q 5000.0 -483, 5101.0 -448 L 5101.0 -448 Q 5203.0 -413, 5283.0 -346 L 5283.0 -346 Q 5364.0 -279, 5413.0 -176 L 5413.0 -176 Q 5463.0 -74, 5463.0 58 L 5463.0 1117 L 5182.0 1117 L 5182.0 53 Q 5182.0 -12, 5160.0 -61 L 5160.0 -61 Q 5138.0 -110, 5100.0 -141 L 5100.0 -141 Q 5062.0 -172, 5009.0 -188 L 5009.0 -188 Q 4956.0 -205, 4897.0 -205 L 4897.0 -483 Z"/><path fill="#fff" d="M 6712.6 -483 Q 6906.6 -483, 7001.6 -381 L 7001.6 -381 Q 7097.6 -279, 7097.6 -116 Q 7097.6 3, 7038.6 97 L 7038.6 97 Q 6980.6 191, 6841.6 251 L 5971.6 635 Q 5931.6 653, 5906.6 684 L 5906.6 684 Q 5881.6 714, 5881.6 753 L 5881.6 839 L 7058.6 839 L 7058.6 1117 L 5602.6 1117 L 5602.6 749 Q 5602.6 712, 5611.6 663 L 5611.6 663 Q 5620.6 614, 5648.6 564 L 5648.6 564 Q 5676.6 514, 5726.6 465 L 5726.6 465 Q 5777.6 416, 5858.6 382 L 6733.6 -3 Q 6777.6 -21, 6799.6 -55 L 6799.6 -55 Q 6821.6 -89, 6821.6 -121 Q 6821.6 -158, 6800.6 -181 L 6800.6 -181 Q 6779.6 -205, 6719.6 -205 L 5662.6 -205 L 5662.6 -483 L 6712.6 -483 Z"/></g><g clip-path="url(#band-bottom)" style="animation:glitch-bottom 30s infinite"><path fill="#fff" d="M 1306 0 L 376 0 L 376 -5312 L 1306 -5312 L 1306 -3624 L 4808 -5359 L 4808 -4294 L 1283 -2660 L 4808 -978 L 4808 54 L 1306 -1696 L 1306 0 Z"/><path fill="#fff" d="M 4897.0 -483 Q 5000.0 -483, 5101.0 -448 L 5101.0 -448 Q 5203.0 -413, 5283.0 -346 L 5283.0 -346 Q 5364.0 -279, 5413.0 -176 L 5413.0 -176 Q 5463.0 -74, 5463.0 58 L 5463.0 1117 L 5182.0 1117 L 5182.0 53 Q 5182.0 -12, 5160.0 -61 L 5160.0 -61 Q 5138.0 -110, 5100.0 -141 L 5100.0 -141 Q 5062.0 -172, 5009.0 -188 L 5009.0 -188 Q 4956.0 -205, 4897.0 -205 L 4897.0 -483 Z"/><path fill="#fff" d="M 6712.6 -483 Q 6906.6 -483, 7001.6 -381 L 7001.6 -381 Q 7097.6 -279, 7097.6 -116 Q 7097.6 3, 7038.6 97 L 7038.6 97 Q 6980.6 191, 6841.6 251 L 5971.6 635 Q 5931.6 653, 5906.6 684 L 5906.6 684 Q 5881.6 714, 5881.6 753 L 5881.6 839 L 7058.6 839 L 7058.6 1117 L 5602.6 1117 L 5602.6 749 Q 5602.6 712, 5611.6 663 L 5611.6 663 Q 5620.6 614, 5648.6 564 L 5648.6 564 Q 5676.6 514, 5726.6 465 L 5726.6 465 Q 5777.6 416, 5858.6 382 L 6733.6 -3 Q 6777.6 -21, 6799.6 -55 L 6799.6 -55 Q 6821.6 -89, 6821.6 -121 Q 6821.6 -158, 6800.6 -181 L 6800.6 -181 Q 6779.6 -205, 6719.6 -205 L 5662.6 -205 L 5662.6 -483 L 6712.6 -483 Z"/></g></svg>