<svg xmlns="http://www.w3.org/2000/svg" width="5010" height="6000" viewBox="-200 -4800 5410 6000"><defs><clipPath id="band-top"><path d="M-200-4800H5210V-3595H-200z"/></clipPath><clipPath id="band-middle"><path d="M-200-3602H5210V2H-200z"/></clipPath><clipPath id="band-bottom"><path d="M-200-2H5210V1203H-200z"/></clipPath><style>@keyframes glitch-bottom-0{0%,46.1%,46.95%,85.69%,86.04%,to{transform:translateX(0)}46.11%,46.94%,85.7%,86.03%{transform:translateX(200px)}}@keyframes glitch-top-0{0%,85.19%,86.21%,to{transform:translateX(0)}85.2%,86.2%{transform:translateX(-200px)}}</style></defs><g clip-path="url(#band-top)" style="animation:glitch-top-0 15s infinite"><path fill="#fff" d="M 960 -4800 L 960 0 L 0 0 L 0 -4800 L 960 -4800 Z M 1920 -2880 L 1920 -1920 L 960 -1920 L 960 -2880 L 1920 -2880 Z M 2880 -3840 L 2880 -2880 L 1920 -2880 L 1920 -3840 L 2880 -3840 Z M 3840 -4800 L 3840 -3840 L 2880 -3840 L 2880 -4800 L 3840 -4800 Z M 2880 -1920 L 2880 -960 L 1920 -960 L 1920 -1920 L 2880 -1920 Z M 3840 -960 L 3840 0 L 2880 0 L 2880 -960 L 3840 -960 Z"/><path fill="#fff" d="M 5010.0 903 L 5010.0 1200 L 4148.0 1200 L 3858.0 1200 L 3858.0 25 L 3858.0 -272 L 5010.0 -272 L 5010.0 22 L 5010.0 903 Z M 4720.0 240 L 4720.0 48 L 4148.0 48 L 4148.0 240 L 4720.0 240 Z M 4148.0 560 L 4148.0 880 L 4720.0 880 L 4720.0 560 L 4148.0 560 Z"/></g><g clip-path="url(#band-middle)" style="animation:none"><path fill="#fff" d="M 960 -4800 L 960 0 L 0 0 L 0 -4800 L 960 -4800 Z M 1920 -2880 L 1920 -1920 L 960 -1920 L 960 -2880 L 1920 -2880 Z M 2880 -3840 L 2880 -2880 L 1920 -2880 L 1920 -3840 L 2880 -3840 Z M 3840 -4800 L 3840 -3840 L 2880 -3840 L 2880 -4800 L 3840 -4800 Z M 2880 -1920 L 2880 -960 L 1920 -960 L 1920 -1920 L 2880 -1920 Z M 3840 -960 L 3840 0 L 2880 0 L 2880 -960 L 3840 -960 Z"/><path fill="#fff" d="M 5010.0 903 L 5010.0 1200 L 4148.0 1200 L 3858.0 1200 L 3858.0 25 L 3858.0 -272 L 5010.0 -272 L 5010.0 22 L 5010.0 903 Z M 4720.0 240 L 4720.0 48 L 4148.0 48 L 4148.0 240 L 4720.0 240 Z M 4148.0 560 L 4148.0 880 L 4720.0 880 L 4720.0 560 L 4148.0 560 Z"/></g><g clip-path="url(#band-bottom)" style="animation:glitch-bottom-0 15s infinite"><path fill="#fff" d="M 960 -4800 L 960 0 L 0 0 L 0 -4800 L 960 -4800 Z M 1920 -2880 L 1920 -1920 L 960 -1920 L 960 -2880 L 1920 -2880 Z M 2880 -3840 L 2880 -2880 L 1920 -2880 L 1920 -3840 L 2880 -3840 Z M 3840 -4800 L 3840 -3840 L 2880 -3840 L 2880 -4800 L 3840 -4800 Z M 2880 -1920 L 2880 -960 L 1920 -960 L 1920 -1920 L 2880 -1920 Z M 3840 -960 L 3840 0 L 2880 0 L 2880 -960 L 3840 -960 Z"/><path fill="#fff" d="M 5010.0 903 L 5010.0 1200 L 4148.0 1200 L 3858.0 1200 L 3858.0 25 L 3858.0 -272 L 5010.0 -272 L 5010.0 22 L 5010.0 903 Z M 4720.0 240 L 4720.0 48 L 4148.0 48 L 4148.0 240 L 4720.0 240 Z M 4148.0 560 L 4148.0 880 L 4720.0 880 L 4720.0 560 L 4148.0 560 Z"/></g></svg>