<svg xmlns="http://www.w3.org/2000/svg" width="6165" height="6000" viewBox="-200 -4800 6565 6000">
  <defs>
    <style>
      .band-top-0 { animation: glitch-top-0 15.0s infinite; }
      .band-middle-0 { animation: none; }
      .band-bottom-0 { animation: glitch-bottom-0 15.0s infinite; }
      @keyframes glitch-bottom-0 {
        0% { transform: translateX(0); }
        23.01% { transform: translateX(0); }
        23.02% { transform: translateX(200px); }
        24.69% { transform: translateX(200px); }
        24.70% { transform: translateX(0); }
        86.34% { transform: translateX(0); }
        86.35% { transform: translateX(200px); }
        87.01% { transform: translateX(200px); }
        87.02% { transform: translateX(0); }
        100% { transform: translateX(0); }
      }
      @keyframes glitch-top-0 {
        0% { transform: translateX(0); }
        85.34% { transform: translateX(0); }
        85.35% { transform: translateX(-200px); }
        87.35% { transform: translateX(-200px); }
        87.36% { transform: translateX(0); }
        100% { transform: translateX(0); }
      }
    </style>
    <clipPath id="band-top">
      <rect x="-200" y="-4800" width="6565" height="1205"/>
    </clipPath>
    <clipPath id="band-middle">
      <rect x="-200" y="-3602" width="6565" height="3604"/>
    </clipPath>
    <clipPath id="band-bottom">
      <rect x="-200" y="-2" width="6565" height="1205"/>
    </clipPath>
  </defs>
  <g class="band-top-0" clip-path="url(#band-top)">
    <path d="M 968.0 -3840 L 968.0 -2880 L 2872.0 -2880 L 2872.0 -3840 L 968.0 -3840 Z M 3840.0 0 L 2872.0 0 L 2872.0 -1920 L 968.0 -1920 L 968.0 0 L 0.0 0 L 0.0 -4800 L 960.0 -4800 L 3840.0 -4800 L 3840.0 -3844 L 3840.0 -2880 L 2880.0 -2880 L 2880.0 -1920 L 3840.0 -1920 L 3840.0 0 Z " fill="white"/>
    <path d="M 5010.0 880 L 5010.0 1200 L 4146.0 1200 L 4146.0 880 L 5010.0 880 Z M 4722.0 -272 L 4722.0 912 L 4434.0 912 L 4434.0 -272 L 4722.0 -272 Z M 4434.0 -16 L 4434.0 304 L 4146.0 304 L 4146.0 -16 L 4434.0 -16 Z " fill="white"/>
    <path d="M 5303.6 48 L 5303.6 880 L 5875.6 880 L 5875.6 48 L 5303.6 48 Z M 5877.6 1200 L 5301.6 1200 L 5013.6 1200 L 5013.6 -272 L 5301.6 -272 L 6165.6 -272 L 6165.6 22 L 6165.6 1200 L 5877.6 1200 Z M 5589.6 240 L 5589.6 560 L 5301.6 560 L 5301.6 240 L 5589.6 240 Z " fill="white"/>
  </g>
  <g class="band-middle-0" clip-path="url(#band-middle)">
    <path d="M 968.0 -3840 L 968.0 -2880 L 2872.0 -2880 L 2872.0 -3840 L 968.0 -3840 Z M 3840.0 0 L 2872.0 0 L 2872.0 -1920 L 968.0 -1920 L 968.0 0 L 0.0 0 L 0.0 -4800 L 960.0 -4800 L 3840.0 -4800 L 3840.0 -3844 L 3840.0 -2880 L 2880.0 -2880 L 2880.0 -1920 L 3840.0 -1920 L 3840.0 0 Z " fill="white"/>
    <path d="M 5010.0 880 L 5010.0 1200 L 4146.0 1200 L 4146.0 880 L 5010.0 880 Z M 4722.0 -272 L 4722.0 912 L 4434.0 912 L 4434.0 -272 L 4722.0 -272 Z M 4434.0 -16 L 4434.0 304 L 4146.0 304 L 4146.0 -16 L 4434.0 -16 Z " fill="white"/>
    <path d="M 5303.6 48 L 5303.6 880 L 5875.6 880 L 5875.6 48 L 5303.6 48 Z M 5877.6 1200 L 5301.6 1200 L 5013.6 1200 L 5013.6 -272 L 5301.6 -272 L 6165.6 -272 L 6165.6 22 L 6165.6 1200 L 5877.6 1200 Z M 5589.6 240 L 5589.6 560 L 5301.6 560 L 5301.6 240 L 5589.6 240 Z " fill="white"/>
  </g>
  <g class="band-bottom-0" clip-path="url(#band-bottom)">
    <path d="M 968.0 -3840 L 968.0 -2880 L 2872.0 -2880 L 2872.0 -3840 L 968.0 -3840 Z M 3840.0 0 L 2872.0 0 L 2872.0 -1920 L 968.0 -1920 L 968.0 0 L 0.0 0 L 0.0 -4800 L 960.0 -4800 L 3840.0 -4800 L 3840.0 -3844 L 3840.0 -2880 L 2880.0 -2880 L 2880.0 -1920 L 3840.0 -1920 L 3840.0 0 Z " fill="white"/>
    <path d="M 5010.0 880 L 5010.0 1200 L 4146.0 1200 L 4146.0 880 L 5010.0 880 Z M 4722.0 -272 L 4722.0 912 L 4434.0 912 L 4434.0 -272 L 4722.0 -272 Z M 4434.0 -16 L 4434.0 304 L 4146.0 304 L 4146.0 -16 L 4434.0 -16 Z " fill="white"/>
    <path d="M 5303.6 48 L 5303.6 880 L 5875.6 880 L 5875.6 48 L 5303.6 48 Z M 5877.6 1200 L 5301.6 1200 L 5013.6 1200 L 5013.6 -272 L 5301.6 -272 L 6165.6 -272 L 6165.6 22 L 6165.6 1200 L 5877.6 1200 Z M 5589.6 240 L 5589.6 560 L 5301.6 560 L 5301.6 240 L 5589.6 240 Z " fill="white"/>
  </g>
</svg>
