<svg xmlns="http://www.w3.org/2000/svg" xml:space="preserve" width="100%" x="0" y="0" viewBox="0 0 1024 1024"><path fill="#ffffffff" d="M476.632812,781.571167 C513.761841,766.739258 540.114868,740.077148 561.521240,707.764160 C573.213989,690.114014 580.717285,670.532349 587.796631,650.735107 C596.470215,626.479614 608.543335,604.284607 626.940369,585.792236 C641.179626,571.479187 658.174500,560.921204 674.548828,549.478760 C692.872253,536.674377 708.307800,521.400330 717.130859,500.291809 C724.558228,482.522675 726.411865,463.987030 725.632080,444.998291 C725.572571,443.549286 724.940002,442.025726 726.024963,440.544220 C728.139954,439.969391 729.311279,441.674316 730.607483,442.776917 C761.847290,469.351288 780.664612,503.214417 787.163086,543.410217 C798.962219,616.393494 777.475403,680.110535 730.215820,735.578796 C692.540405,779.798096 645.662170,810.507507 588.710815,823.393738 C495.358826,844.516174 411.064850,825.181580 338.431183,761.936340 C289.871124,719.653076 259.757477,665.966797 249.292068,602.447998 C238.496124,536.923096 249.553680,474.853241 284.497162,417.694489 C289.833374,408.965790 296.768738,401.521240 303.656525,394.042084 C304.767365,392.835846 305.792328,391.550537 307.435760,389.622925 C299.629456,388.266937 292.988220,391.538879 285.059906,392.004852 C299.226776,373.300720 319.869446,364.035645 337.917603,349.749390 C330.574158,346.900696 324.876221,351.401276 319.083984,349.952972 C318.891022,347.278748 321.034119,346.504791 322.450287,345.287415 C330.042328,338.761017 338.151367,332.897797 346.439484,327.314514 C351.144379,324.145081 353.151581,320.419495 353.146942,314.510620 C353.119781,279.808685 357.470612,245.797165 370.894775,213.433487 C375.563232,202.178467 381.184906,191.422150 387.889069,181.213577 C390.203888,177.688690 392.260681,176.883148 395.906433,179.426056 C425.969940,200.395416 451.807159,225.269272 468.663605,258.345642 C470.962128,262.855865 473.971802,264.268097 478.733612,264.801605 C513.656555,268.714233 545.202698,280.929108 572.369019,303.651367 C584.591064,313.874054 592.783813,327.051117 595.949707,342.237091 C599.761658,360.521973 610.728027,371.907104 625.669800,381.359222 C644.032410,392.975372 662.541382,404.134277 683.497192,410.460388 C688.427795,411.948853 688.593445,414.706024 687.149719,418.800903 C681.168396,435.765411 668.933655,447.151550 654.022705,456.138519 C641.258301,463.831757 627.026489,466.500061 612.460999,467.227020 C597.323975,467.982513 582.140076,467.761292 566.994690,468.396881 C553.431335,468.966125 540.151306,470.822815 528.711731,479.299377 C507.526062,494.997620 501.223694,521.885986 512.919312,546.771606 C521.440491,564.902649 535.601807,577.809204 551.578125,589.064697 C563.589417,597.526855 576.145264,605.062622 589.690918,610.858765 C592.060486,611.872681 594.528931,612.862061 592.660278,616.293762 C582.419434,635.101318 576.515259,655.719360 568.070801,675.273499 C551.143494,714.470398 523.461975,744.380737 487.787964,767.233826 C476.550446,774.432617 464.818359,780.736572 452.405975,785.721924 C450.309998,786.563782 448.321625,787.673462 446.405823,788.963623 C456.799622,788.195679 466.586945,785.162842 476.632812,781.571167 M633.590515,451.049316 C642.976257,448.295258 651.524841,443.930725 659.109009,437.731415 C660.207214,436.833801 661.944214,436.154114 661.077454,434.212036 C660.332031,432.542053 659.522949,430.761658 657.396729,430.500702 C655.916077,430.319061 654.403381,430.377594 652.904724,430.367432 C639.213074,430.274567 625.724915,428.429871 612.335327,425.703583 C585.682739,420.276764 560.332153,410.433197 534.346375,402.744446 C499.021271,392.292358 463.266083,388.910675 426.880463,396.414703 C414.176575,399.034698 401.858154,402.819000 389.197876,408.829407 C399.389130,410.414032 408.956421,409.902832 419.162170,414.286469 C397.053070,425.237671 378.839417,438.797119 366.486328,459.164764 C386.224121,453.346710 405.587616,446.397400 426.756378,448.995209 C417.075989,457.416077 406.919739,464.872498 398.865204,474.709747 C390.866821,484.478394 384.336456,495.038422 380.153442,506.947357 C375.998108,518.777527 373.287476,530.857910 375.084106,543.647949 C383.176147,532.499512 390.540283,520.939941 404.402771,513.596191 C398.721924,546.341309 405.164337,575.294678 422.476074,601.642639 C439.647369,627.776794 463.480957,645.957275 492.458832,657.923340 C482.966858,645.807312 474.092224,633.524963 468.271332,619.299683 C462.404694,604.962646 458.790161,590.322693 460.814453,574.574463 C469.684357,583.522644 476.689056,594.115112 489.419952,598.305298 C472.297699,559.022034 473.210968,521.790405 500.825897,486.012329 C484.228149,491.588104 471.752594,500.979523 459.322632,511.364807 C458.775024,507.998291 460.245087,506.265442 461.260742,504.448608 C464.615967,498.446930 468.840210,493.094482 473.795258,488.330688 C495.019501,467.925507 521.438110,459.881439 549.795898,456.746887 C568.356323,454.695312 587.029175,454.730682 605.679199,454.759613 C614.896179,454.773895 623.931274,453.652283 633.590515,451.049316 M775.812805,593.553101 C777.271606,582.760620 776.820923,571.989563 775.827393,561.175476 C773.326904,533.959229 764.836121,508.837067 749.957520,485.917114 C747.008057,481.373566 743.923828,476.862061 739.903564,473.167999 C738.384155,474.275482 738.523987,475.680725 738.261230,476.957489 C736.007935,487.906677 733.022461,498.628754 728.247070,508.784729 C717.707397,531.200073 700.657043,547.743347 680.585327,561.541504 C673.628418,566.323975 666.601807,571.005127 659.283020,575.951599 C662.229492,579.980896 665.782898,582.348633 669.599609,584.360474 C681.951721,590.871338 694.088501,587.301697 706.947754,582.501465 C707.208252,594.456665 704.745911,604.761230 700.416870,614.738098 C696.109009,624.666199 689.602783,633.133606 681.776123,641.746948 C708.960266,642.414734 729.135254,630.912781 745.591797,610.435852 C750.912720,621.354919 748.713379,631.677979 747.225891,643.215698 C764.244141,630.143982 774.984131,615.214111 775.812805,593.553101 M440.724060,255.763687 C429.140778,236.292740 414.158295,219.971603 395.919342,206.175140 C395.060394,207.468826 394.611237,207.972656 394.358307,208.560867 C393.768005,209.933945 393.185974,211.321320 392.750397,212.748627 C382.183319,247.374634 383.895630,281.557892 396.297485,315.415771 C397.980469,320.010529 400.018829,319.860626 403.560150,317.432587 C418.375061,307.275116 433.216675,297.150177 448.255249,287.329926 C451.975311,284.900696 452.428711,282.509003 451.121613,278.653442 C448.491577,270.895538 444.956573,263.583160 440.724060,255.763687 M520.215759,349.718842 C516.711548,350.915039 512.729736,350.969025 509.811615,353.776825 C518.134460,363.901459 549.064209,375.034149 559.263306,371.728943 C558.445801,362.386475 549.925903,351.802368 541.271667,349.314148 C534.498596,347.366791 527.767578,348.434814 520.215759,349.718842 z" opacity="1"/><path fill="#ffffffff" d="M574.631287,192.990952 C575.861877,204.352631 574.316772,215.258835 573.143494,226.136658 C571.178223,244.358704 566.854919,262.131470 561.750732,279.712250 C561.480957,280.641296 560.995117,281.507629 560.238525,283.266235 C539.980530,270.736664 518.480408,261.954956 495.866028,258.019409 C494.914062,256.363953 495.285034,255.589462 495.793182,254.937912 C515.664978,229.458145 538.306763,207.251236 568.321228,193.818634 C570.200256,192.977707 572.081177,191.487106 574.631287,192.990952 z" opacity="1"/><path fill="#ffffffff" d="M411.660522,240.365570 C417.934387,247.889862 424.139709,255.034027 428.262054,264.310913 C422.980743,264.434265 419.925568,260.110352 414.747314,259.702515 C417.846161,268.206360 425.401917,273.800323 428.380768,282.342010 C423.564056,283.431641 420.013306,280.094238 415.511658,280.350067 C416.509216,285.077301 421.227722,287.150818 423.157349,291.708740 C418.014526,295.176331 413.019806,298.692200 407.866974,301.958679 C405.112427,303.704865 404.467865,301.172028 403.761993,299.354370 C400.248993,290.308228 397.857605,280.896027 397.088074,271.289551 C396.052124,258.356415 395.871307,245.346008 398.743835,232.524399 C399.002625,231.369263 399.241211,230.242065 400.857941,229.363708 C404.978516,232.160843 407.921906,236.425720 411.660522,240.365570 z" opacity="1"/></svg>