<svg xmlns="http://www.w3.org/2000/svg" width="5010" height="6000" viewBox="-200 -4800 5410 6000"><defs><clipPath id="band-top"><path d="M-200-4800H5210V-3595H-200z"/></clipPath><clipPath id="band-middle"><path d="M-200-3602H5210V2H-200z"/></clipPath><clipPath id="band-bottom"><path d="M-200-2H5210V1203H-200z"/></clipPath><style>@keyframes glitch-bottom-0{0%,45.3%,46.32%,98.21%,98.63%,to{transform:translateX(0)}45.31%,46.31%,98.22%,98.62%{transform:translateX(200px)}}@keyframes glitch-top-0{0%,97.61%,98.83%,to{transform:translateX(0)}97.62%,98.82%{transform:translateX(-200px)}}</style></defs><g clip-path="url(#band-top)" style="animation:glitch-top-0 25s infinite"><path fill="#000" d="M 968.0 -3840 L 968.0 -2880 L 2872.0 -2880 L 2872.0 -3840 L 968.0 -3840 Z M 3840.0 0 L 2872.0 0 L 2872.0 -1920 L 968.0 -1920 L 968.0 0 L 0.0 0 L 0.0 -4800 L 960.0 -4800 L 3840.0 -4800 L 3840.0 -3844 L 3840.0 -2880 L 2880.0 -2880 L 2880.0 -1920 L 3840.0 -1920 L 3840.0 0 Z"/><path fill="#000" d="M 4722.0 880 L 4722.0 560 L 4146.0 560 L 3858.0 560 L 3858.0 48 L 4146.0 48 L 4146.0 -272 L 5010.0 -272 L 5010.0 48 L 4146.0 48 L 4146.0 240 L 4722.0 240 L 4722.0 624 L 5010.0 624 L 5010.0 1200 L 4722.0 1200 L 3858.0 1200 L 3858.0 880 L 4722.0 880 Z"/></g><g clip-path="url(#band-middle)" style="animation:none"><path fill="#000" d="M 968.0 -3840 L 968.0 -2880 L 2872.0 -2880 L 2872.0 -3840 L 968.0 -3840 Z M 3840.0 0 L 2872.0 0 L 2872.0 -1920 L 968.0 -1920 L 968.0 0 L 0.0 0 L 0.0 -4800 L 960.0 -4800 L 3840.0 -4800 L 3840.0 -3844 L 3840.0 -2880 L 2880.0 -2880 L 2880.0 -1920 L 3840.0 -1920 L 3840.0 0 Z"/><path fill="#000" d="M 4722.0 880 L 4722.0 560 L 4146.0 560 L 3858.0 560 L 3858.0 48 L 4146.0 48 L 4146.0 -272 L 5010.0 -272 L 5010.0 48 L 4146.0 48 L 4146.0 240 L 4722.0 240 L 4722.0 624 L 5010.0 624 L 5010.0 1200 L 4722.0 1200 L 3858.0 1200 L 3858.0 880 L 4722.0 880 Z"/></g><g clip-path="url(#band-bottom)" style="animation:glitch-bottom-0 25s infinite"><path fill="#000" d="M 968.0 -3840 L 968.0 -2880 L 2872.0 -2880 L 2872.0 -3840 L 968.0 -3840 Z M 3840.0 0 L 2872.0 0 L 2872.0 -1920 L 968.0 -1920 L 968.0 0 L 0.0 0 L 0.0 -4800 L 960.0 -4800 L 3840.0 -4800 L 3840.0 -3844 L 3840.0 -2880 L 2880.0 -2880 L 2880.0 -1920 L 3840.0 -1920 L 3840.0 0 Z"/><path fill="#000" d="M 4722.0 880 L 4722.0 560 L 4146.0 560 L 3858.0 560 L 3858.0 48 L 4146.0 48 L 4146.0 -272 L 5010.0 -272 L 5010.0 48 L 4146.0 48 L 4146.0 240 L 4722.0 240 L 4722.0 624 L 5010.0 624 L 5010.0 1200 L 4722.0 1200 L 3858.0 1200 L 3858.0 880 L 4722.0 880 Z"/></g></svg>