<svg xmlns="http://www.w3.org/2000/svg" width="6134" height="6429" viewBox="176 -5312 6534 6429"><defs><clipPath id="band-top"><path d="M176-5312H6710V-4022H176z"/></clipPath><clipPath id="band-middle"><path d="M176-4028H6710V-167H176z"/></clipPath><clipPath id="band-bottom"><path d="M176-170H6710V1120H176z"/></clipPath><style>@keyframes glitch-bottom{0%,70.89%,71.75%,98.09%,98.44%,to{transform:translateX(0)}70.9%,71.74%,98.1%,98.43%{transform:translateX(200px)}}@keyframes glitch-top{0%,97.59%,98.61%,to{transform:translateX(0)}97.6%,98.6%{transform:translateX(-200px)}}</style></defs><g clip-path="url(#band-top)" style="animation:glitch-top 30s infinite"><path fill="#000" d="M 2719 0 Q 2135 0, 1697 -162 L 1697 -162 Q 1260 -324, 964 -624 L 964 -624 Q 668 -925, 522 -1349 L 522 -1349 Q 376 -1773, 376 -2297 L 376 -5312 L 1306 -5312 L 1306 -2290 Q 1306 -1642, 1670 -1283 L 1670 -1283 Q 2035 -925, 2688 -925 L 4301 -925 L 4301 0 L 2719 0 Z"/><path fill="#000" d="M 4390.0 -483 Q 4493.0 -483, 4594.0 -448 L 4594.0 -448 Q 4696.0 -413, 4776.0 -346 L 4776.0 -346 Q 4857.0 -279, 4906.0 -176 L 4906.0 -176 Q 4956.0 -74, 4956.0 58 L 4956.0 1117 L 4675.0 1117 L 4675.0 53 Q 4675.0 -12, 4653.0 -61 L 4653.0 -61 Q 4631.0 -110, 4593.0 -141 L 4593.0 -141 Q 4555.0 -172, 4502.0 -188 L 4502.0 -188 Q 4449.0 -205, 4390.0 -205 L 4390.0 -483 Z"/><path fill="#000" d="M 5860.6 839 Q 6231.6 839, 6231.6 340 L 6231.6 319 Q 6231.6 47, 6137.6 -79 L 6137.6 -79 Q 6044.6 -205, 5855.6 -205 L 5703.6 -205 Q 5514.6 -205, 5421.6 -79 L 5421.6 -79 Q 5328.6 47, 5328.6 319 L 5328.6 340 Q 5328.6 839, 5701.6 839 L 5860.6 839 Z M 5786.6 -483 Q 6503.6 -483, 6510.6 311 L 6510.6 318 Q 6510.6 1117, 5788.6 1117 L 5772.6 1117 Q 5051.6 1117, 5051.6 318 L 5051.6 311 Q 5053.6 -483, 5775.6 -483 L 5786.6 -483 Z"/></g><g clip-path="url(#band-middle)" style="animation:none"><path fill="#000" d="M 2719 0 Q 2135 0, 1697 -162 L 1697 -162 Q 1260 -324, 964 -624 L 964 -624 Q 668 -925, 522 -1349 L 522 -1349 Q 376 -1773, 376 -2297 L 376 -5312 L 1306 -5312 L 1306 -2290 Q 1306 -1642, 1670 -1283 L 1670 -1283 Q 2035 -925, 2688 -925 L 4301 -925 L 4301 0 L 2719 0 Z"/><path fill="#000" d="M 4390.0 -483 Q 4493.0 -483, 4594.0 -448 L 4594.0 -448 Q 4696.0 -413, 4776.0 -346 L 4776.0 -346 Q 4857.0 -279, 4906.0 -176 L 4906.0 -176 Q 4956.0 -74, 4956.0 58 L 4956.0 1117 L 4675.0 1117 L 4675.0 53 Q 4675.0 -12, 4653.0 -61 L 4653.0 -61 Q 4631.0 -110, 4593.0 -141 L 4593.0 -141 Q 4555.0 -172, 4502.0 -188 L 4502.0 -188 Q 4449.0 -205, 4390.0 -205 L 4390.0 -483 Z"/><path fill="#000" d="M 5860.6 839 Q 6231.6 839, 6231.6 340 L 6231.6 319 Q 6231.6 47, 6137.6 -79 L 6137.6 -79 Q 6044.6 -205, 5855.6 -205 L 5703.6 -205 Q 5514.6 -205, 5421.6 -79 L 5421.6 -79 Q 5328.6 47, 5328.6 319 L 5328.6 340 Q 5328.6 839, 5701.6 839 L 5860.6 839 Z M 5786.6 -483 Q 6503.6 -483, 6510.6 311 L 6510.6 318 Q 6510.6 1117, 5788.6 1117 L 5772.6 1117 Q 5051.6 1117, 5051.6 318 L 5051.6 311 Q 5053.6 -483, 5775.6 -483 L 5786.6 -483 Z"/></g><g clip-path="url(#band-bottom)" style="animation:glitch-bottom 30s infinite"><path fill="#000" d="M 2719 0 Q 2135 0, 1697 -162 L 1697 -162 Q 1260 -324, 964 -624 L 964 -624 Q 668 -925, 522 -1349 L 522 -1349 Q 376 -1773, 376 -2297 L 376 -5312 L 1306 -5312 L 1306 -2290 Q 1306 -1642, 1670 -1283 L 1670 -1283 Q 2035 -925, 2688 -925 L 4301 -925 L 4301 0 L 2719 0 Z"/><path fill="#000" d="M 4390.0 -483 Q 4493.0 -483, 4594.0 -448 L 4594.0 -448 Q 4696.0 -413, 4776.0 -346 L 4776.0 -346 Q 4857.0 -279, 4906.0 -176 L 4906.0 -176 Q 4956.0 -74, 4956.0 58 L 4956.0 1117 L 4675.0 1117 L 4675.0 53 Q 4675.0 -12, 4653.0 -61 L 4653.0 -61 Q 4631.0 -110, 4593.0 -141 L 4593.0 -141 Q 4555.0 -172, 4502.0 -188 L 4502.0 -188 Q 4449.0 -205, 4390.0 -205 L 4390.0 -483 Z"/><path fill="#000" d="M 5860.6 839 Q 6231.6 839, 6231.6 340 L 6231.6 319 Q 6231.6 47, 6137.6 -79 L 6137.6 -79 Q 6044.6 -205, 5855.6 -205 L 5703.6 -205 Q 5514.6 -205, 5421.6 -79 L 5421.6 -79 Q 5328.6 47, 5328.6 319 L 5328.6 340 Q 5328.6 839, 5701.6 839 L 5860.6 839 Z M 5786.6 -483 Q 6503.6 -483, 6510.6 311 L 6510.6 318 Q 6510.6 1117, 5788.6 1117 L 5772.6 1117 Q 5051.6 1117, 5051.6 318 L 5051.6 311 Q 5053.6 -483, 5775.6 -483 L 5786.6 -483 Z"/></g></svg>