<svg xmlns="http://www.w3.org/2000/svg" xmlns:xlink="http://www.w3.org/1999/xlink" xml:space="preserve" viewBox="0 0 900 900"><defs><path id="a" d="M447.73 309.78c-25.83 0-46.76 20.94-46.76 46.76v440.04c0 25.83 20.94 46.76 46.76 46.76s46.76-20.93 46.76-46.76V356.55c.01-25.83-20.93-46.77-46.76-46.77"/></defs><clipPath id="b"><use xlink:href="#a" style="overflow:visible"/></clipPath><path d="M368.03 276.84h159.41v599.44H368.03z" style="clip-path:url(#b);fill:#f7d186"/><defs><path id="c" d="M263.62 234.54c-.13 2.87-.2 5.76-.2 8.68 0 3.19.07 6.35.24 9.5-.07 1.55-.24 3.08-.24 4.66v306.18c0 58.55 47.91 106.46 106.46 106.46H530.1c58.56 0 106.46-47.91 106.46-106.46V257.37c0-1.78-.18-3.51-.28-5.26.14-2.95.22-5.92.22-8.89 0-2.92-.07-5.8-.2-8.68-4.5-99.01-86.2-177.88-186.32-177.88-100.13 0-181.84 78.87-186.36 177.88"/></defs><clipPath id="d"><use xlink:href="#c" style="overflow:visible"/></clipPath><g style="clip-path:url(#d)"><defs><path id="e" d="M142.32 97.05h606.11v606.11H142.32z"/></defs><clipPath id="f"><use xlink:href="#e" style="overflow:visible"/></clipPath><g style="clip-path:url(#f)"><defs><path id="g" d="M121.45 305.69h654.38v195.52H121.45z" transform="rotate(-45.001 448.64 403.452)"/></defs><clipPath id="h"><use xlink:href="#g" style="overflow:visible"/></clipPath><g style="clip-path:url(#h)"><defs><path id="i" d="M260.91 50.93h382.11v619.29H260.91z"/></defs><clipPath id="j"><use xlink:href="#i" style="overflow:visible"/></clipPath><path d="M115.65 70.37h665.66v665.66H115.65z" style="clip-path:url(#j);fill:#ffcd3c"/></g></g></g><defs><path id="k" d="M263.62 234.54c-.13 2.87-.2 5.76-.2 8.68 0 3.19.07 6.35.24 9.5-.07 1.55-.24 3.08-.24 4.66v306.18c0 58.55 47.91 106.46 106.46 106.46H530.1c58.56 0 106.46-47.91 106.46-106.46V257.37c0-1.78-.18-3.51-.28-5.26.14-2.95.22-5.92.22-8.89 0-2.92-.07-5.8-.2-8.68-4.5-99.01-86.2-177.88-186.32-177.88-100.13 0-181.84 78.87-186.36 177.88"/></defs><clipPath id="l"><use xlink:href="#k" style="overflow:visible"/></clipPath><g style="clip-path:url(#l)"><defs><path id="m" d="M-22.38-67.66h639.05v639.05H-22.38z"/></defs><clipPath id="n"><use xlink:href="#m" style="overflow:visible"/></clipPath><g style="clip-path:url(#n)"><defs><path id="o" d="M-32.95 128.38h654.39v241.18H-32.95z" transform="rotate(-45.001 294.247 248.976)"/></defs><clipPath id="p"><use xlink:href="#o" style="overflow:visible"/></clipPath><g style="clip-path:url(#p)"><defs><path id="q" d="M260.91 50.93h382.11v619.29H260.91z"/></defs><clipPath id="r"><use xlink:href="#q" style="overflow:visible"/></clipPath><path d="M-55.33-100.6h699.14v699.14H-55.33z" style="clip-path:url(#r);fill:#f3807b"/></g></g></g><defs><path id="s" d="M263.62 234.54c-.13 2.87-.2 5.76-.2 8.68 0 3.19.07 6.35.24 9.5-.07 1.55-.24 3.08-.24 4.66v306.18c0 58.55 47.91 106.46 106.46 106.46H530.1c58.56 0 106.46-47.91 106.46-106.46V257.37c0-1.78-.18-3.51-.28-5.26.14-2.95.22-5.92.22-8.89 0-2.92-.07-5.8-.2-8.68-4.5-99.01-86.2-177.88-186.32-177.88-100.13 0-181.84 78.87-186.36 177.88"/></defs><clipPath id="t"><use xlink:href="#s" style="overflow:visible"/></clipPath><g style="clip-path:url(#t)"><defs><path id="u" d="M280.67 235.4h606.11v606.11H280.67z"/></defs><clipPath id="v"><use xlink:href="#u" style="overflow:visible"/></clipPath><g style="clip-path:url(#v)"><defs><path id="w" d="M885.86 377.86 423.14 840.59 286.09 703.54l462.72-462.73z"/></defs><clipPath id="x"><use xlink:href="#w" style="overflow:visible"/></clipPath><g style="clip-path:url(#x)"><defs><path id="y" d="M260.91 50.93h382.11v619.29H260.91z"/></defs><clipPath id="z"><use xlink:href="#y" style="overflow:visible"/></clipPath><path d="M253.14 207.87H918.8v665.66H253.14z" style="clip-path:url(#z);fill:#35d0ba"/></g></g></g><defs><path id="A" d="m412.96 670.01 81.54 82.89v-82.89z"/></defs><clipPath id="B"><use xlink:href="#A" style="overflow:visible"/></clipPath><path d="M380.69 636.91h147.03v147.67H380.69z" style="clip-path:url(#B);fill:#d8ae64"/></svg>