<svg xmlns="http://www.w3.org/2000/svg" width="5010" height="6000" viewBox="-200 -4800 5410 6000"><defs><clipPath id="band-top"><path d="M-200-4800H5210V-3595H-200z"/></clipPath><clipPath id="band-middle"><path d="M-200-3602H5210V2H-200z"/></clipPath><clipPath id="band-bottom"><path d="M-200-2H5210V1203H-200z"/></clipPath><style>@keyframes glitch-bottom-0{0%,58.11%,58.46%,8.51%,9.36%,to{transform:translateX(0)}58.12%,58.45%,8.52%,9.35%{transform:translateX(200px)}}@keyframes glitch-top-0{0%,57.61%,58.63%,to{transform:translateX(0)}57.62%,58.62%{transform:translateX(-200px)}}</style></defs><g clip-path="url(#band-top)" style="animation:glitch-top-0 15s infinite"><path fill="#fff" d="M 960 -4800 L 960 0 L 0 0 L 0 -4800 L 960 -4800 Z M 3840 -960 L 3840 0 L 960 0 L 960 -960 L 3840 -960 Z"/><path fill="#fff" d="M 4720.0 560 L 4148.0 560 L 4148.0 880 L 4720.0 880 L 4720.0 560 Z M 3858.0 338 L 3858.0 48 L 4146.0 48 L 4146.0 -272 L 4722.0 -272 L 4722.0 48 L 4148.0 48 L 4148.0 240 L 4720.0 240 L 5010.0 240 L 5010.0 1200 L 4722.0 1200 L 4148.0 1200 L 3858.0 1200 L 3858.0 624 L 3858.0 338 Z"/></g><g clip-path="url(#band-middle)" style="animation:none"><path fill="#fff" d="M 960 -4800 L 960 0 L 0 0 L 0 -4800 L 960 -4800 Z M 3840 -960 L 3840 0 L 960 0 L 960 -960 L 3840 -960 Z"/><path fill="#fff" d="M 4720.0 560 L 4148.0 560 L 4148.0 880 L 4720.0 880 L 4720.0 560 Z M 3858.0 338 L 3858.0 48 L 4146.0 48 L 4146.0 -272 L 4722.0 -272 L 4722.0 48 L 4148.0 48 L 4148.0 240 L 4720.0 240 L 5010.0 240 L 5010.0 1200 L 4722.0 1200 L 4148.0 1200 L 3858.0 1200 L 3858.0 624 L 3858.0 338 Z"/></g><g clip-path="url(#band-bottom)" style="animation:glitch-bottom-0 15s infinite"><path fill="#fff" d="M 960 -4800 L 960 0 L 0 0 L 0 -4800 L 960 -4800 Z M 3840 -960 L 3840 0 L 960 0 L 960 -960 L 3840 -960 Z"/><path fill="#fff" d="M 4720.0 560 L 4148.0 560 L 4148.0 880 L 4720.0 880 L 4720.0 560 Z M 3858.0 338 L 3858.0 48 L 4146.0 48 L 4146.0 -272 L 4722.0 -272 L 4722.0 48 L 4148.0 48 L 4148.0 240 L 4720.0 240 L 5010.0 240 L 5010.0 1200 L 4722.0 1200 L 4148.0 1200 L 3858.0 1200 L 3858.0 624 L 3858.0 338 Z"/></g></svg>