<svg xmlns="http://www.w3.org/2000/svg" width="6850" height="6429" viewBox="-23 -5312 7250 6429"><defs><clipPath id="band-top"><path d="M-23-5312h7250v1290H-23z"/></clipPath><clipPath id="band-middle"><path d="M-23-4028h7250v3861H-23z"/></clipPath><clipPath id="band-bottom"><path d="M-23-170h7250v1290H-23z"/></clipPath><style>@keyframes glitch-bottom{0%,15.79%,16.65%,53.7%,54.06%,to{transform:translateX(0)}15.8%,16.64%,53.71%,54.05%{transform:translateX(200px)}}@keyframes glitch-top{0%,53.2%,54.22%,to{transform:translateX(0)}53.21%,54.21%{transform:translateX(-200px)}}</style></defs><g clip-path="url(#band-top)" style="animation:glitch-top 30s infinite"><path fill="#fff" d="M4539 0 3049-4240q-54-147-200-147t-199 147L1160 0H177l1643-4626q123-347 392-516 269-170 637-170 369 0 638 170 269 169 391 516L5522 0zm1424 103q30 25 60 40 30 14 71 14h473q83 0 132-53 50-53 50-129 0-72-53-126t-127-54h-477q-37 0-69 15-32 14-57 39-24 25-39 58-15 32-15 68 0 76 51 128m737 678q49-59 49-151 0-78-53-136-53-59-127-59h-477q-37 0-69 16t-57 43q-24 26-39 62-15 35-15 74 0 87 49 148 50 61 133 61h473q78 0 133-58M6528-483q135 0 231 36 96 35 155 98 60 62 86 146 27 84 27 182 0 85-41 174-41 88-134 143 93 57 134 148t41 190q0 90-27 178-26 87-86 155-59 67-154 109-94 41-232 41h-392q-138 0-234-41-96-42-155-110-58-69-85-155-26-87-26-177 0-99 39-190t131-148q-92-55-131-143-39-89-39-174 0-98 27-182 28-84 88-146 60-63 154-98 95-36 231-36z"/></g><g clip-path="url(#band-middle)" style="animation:none"><path fill="#fff" d="M4539 0 3049-4240q-54-147-200-147t-199 147L1160 0H177l1643-4626q123-347 392-516 269-170 637-170 369 0 638 170 269 169 391 516L5522 0zm1424 103q30 25 60 40 30 14 71 14h473q83 0 132-53 50-53 50-129 0-72-53-126t-127-54h-477q-37 0-69 15-32 14-57 39-24 25-39 58-15 32-15 68 0 76 51 128m737 678q49-59 49-151 0-78-53-136-53-59-127-59h-477q-37 0-69 16t-57 43q-24 26-39 62-15 35-15 74 0 87 49 148 50 61 133 61h473q78 0 133-58M6528-483q135 0 231 36 96 35 155 98 60 62 86 146 27 84 27 182 0 85-41 174-41 88-134 143 93 57 134 148t41 190q0 90-27 178-26 87-86 155-59 67-154 109-94 41-232 41h-392q-138 0-234-41-96-42-155-110-58-69-85-155-26-87-26-177 0-99 39-190t131-148q-92-55-131-143-39-89-39-174 0-98 27-182 28-84 88-146 60-63 154-98 95-36 231-36z"/></g><g clip-path="url(#band-bottom)" style="animation:glitch-bottom 30s infinite"><path fill="#fff" d="M4539 0 3049-4240q-54-147-200-147t-199 147L1160 0H177l1643-4626q123-347 392-516 269-170 637-170 369 0 638 170 269 169 391 516L5522 0zm1424 103q30 25 60 40 30 14 71 14h473q83 0 132-53 50-53 50-129 0-72-53-126t-127-54h-477q-37 0-69 15-32 14-57 39-24 25-39 58-15 32-15 68 0 76 51 128m737 678q49-59 49-151 0-78-53-136-53-59-127-59h-477q-37 0-69 16t-57 43q-24 26-39 62-15 35-15 74 0 87 49 148 50 61 133 61h473q78 0 133-58M6528-483q135 0 231 36 96 35 155 98 60 62 86 146 27 84 27 182 0 85-41 174-41 88-134 143 93 57 134 148t41 190q0 90-27 178-26 87-86 155-59 67-154 109-94 41-232 41h-392q-138 0-234-41-96-42-155-110-58-69-85-155-26-87-26-177 0-99 39-190t131-148q-92-55-131-143-39-89-39-174 0-98 27-182 28-84 88-146 60-63 154-98 95-36 231-36z"/></g></svg>